# xmcd CD database file
#
# Track frame offsets:
#	150
#	26462
#	53367
#	71581
#	105079
#	121132
#	154312
#	171407
#	193581
#	211240
#	239537
#	268848
#
# Disc length: 4000 seconds
#
# Revision: 0
# Processed by: cddbd v1.5.2PL0 Copyright (c) Steve Scherf et al.
# Submitted via: CDex 1.51
#
DISCID=9e0f9e0c
DTITLE=Evan Christopher, Dick Hyman -  DELTA BOUND
DYEAR=2007
DGENRE=Jazz
TTITLE0=Vieux Carré (Tony Parenti)
TTITLE1=Rampart Street Ramble (Evan Christopher)
TTITLE2=Creole Belles (James Bodewalt Lampe)
TTITLE3=New Orleans (Hoagy Carmichael)
TTITLE4=Kiss Me Sweet (Armand J. Piron, Steve J. Lewis)
TTITLE5=La Ciudad Criolla (Evan Christopher)
TTITLE6=King of Treme (Evan Christopher)
TTITLE7=Desire (Mourant Walter, Raymond Scott)
TTITLE8=Out of There (Evan Christopher)
TTITLE9=While We Danced at the Mardi Gras (Johnny  Mercer, Alfred Opilet)
TTITLE10=Sunday Mornings (Evan Christopher)
TTITLE11=Delta Bound (Alexander Hill)
EXTD=YEAR: 2007
EXTT0=
EXTT1=
EXTT2=
EXTT3=
EXTT4=
EXTT5=
EXTT6=
EXTT7=
EXTT8=
EXTT9=
EXTT10=
EXTT11=
PLAYORDER=
